<svg height="200px" width="200px" version="1.1" id="Layer_1" xmlns="http://www.w3.org/2000/svg" xmlns:xlink="http://www.w3.org/1999/xlink" viewBox="0 0 512 512" xml:space="preserve" fill="#000000"><g id="SVGRepo_bgCarrier" stroke-width="0"></g><g id="SVGRepo_tracerCarrier" stroke-linecap="round" stroke-linejoin="round"></g><g id="SVGRepo_iconCarrier"> <g transform="translate(1 1)"> <path style="fill:#00b3ff;" d="M504.154,402.627L395.781,179.053V50.2H259.247v42.667h4.267c11.947,0,21.333,9.387,21.333,21.333 s-10.24,21.333-21.333,21.333h-4.267v36.693c64.853,23.893,110.933,87.04,110.933,159.573c0,42.667-15.36,81.067-40.96,110.933 h151.04C499.034,442.733,512.687,420.547,504.154,402.627"></path> <path style="fill:#f6f5f4;" d="M487.941,402.627L378.714,179.053V50.2H242.181v42.667h4.267c11.947,0,21.333,9.387,21.333,21.333 s-9.387,21.333-21.333,21.333h-4.267v36.693c64.853,23.893,110.933,87.04,110.933,159.573c0,42.667-15.36,81.067-40.96,110.933 h151.04C482.821,442.733,495.621,420.547,487.941,402.627"></path> <g> <path style="fill:#00b3ff;" d="M461.487,402.627L353.114,179.053V50.2H242.181v42.667h4.267c11.947,0,21.333,9.387,21.333,21.333 s-10.24,21.333-21.333,21.333h-4.267v36.693c64.853,23.893,109.227,87.04,109.227,159.573c0,42.667-15.36,81.067-40.96,110.933 h126.293C456.367,442.733,470.021,420.547,461.487,402.627"></path> <path style="fill:#00b3ff;" d="M233.647,171.373v-35.84H132.101v35.84c-55.467,24.747-94.72,87.04-94.72,160.427 c0,93.867,64.853,170.667,145.067,170.667s145.067-76.8,145.067-170.667C327.514,258.413,288.261,196.12,233.647,171.373"></path> </g> <path style="fill:#FFFFFF;" d="M37.381,331.8c0-73.387,39.253-135.68,94.72-160.427v-35.84h-8.533v35.84 C57.861,196.12,11.781,258.413,11.781,331.8c0,93.867,76.8,170.667,170.667,170.667C102.234,502.467,37.381,425.667,37.381,331.8"></path> <path style="fill:#f6f5f4;" d="M242.181,171.373v-35.84h-8.533v35.84c55.467,23.893,93.867,87.04,93.867,160.427 c0,93.867-64.853,170.667-145.067,170.667c93.867,0,170.667-76.8,170.667-170.667C353.114,258.413,307.034,196.12,242.181,171.373"></path> <path style="fill:#FFFFFF;" d="M246.447,135.533h-128c-11.947,0-21.333-9.387-21.333-21.333s9.387-21.333,21.333-21.333h128 c11.947,0,21.333,9.387,21.333,21.333S258.394,135.533,246.447,135.533"></path> <path style="fill:#00b3ff;" d="M246.447,135.533h-102.4c-11.947,0-21.333-9.387-21.333-21.333s9.387-21.333,21.333-21.333h102.4 c11.947,0,21.333,9.387,21.333,21.333S258.394,135.533,246.447,135.533"></path> <path style="fill:#FFFFFF;" d="M340.314,50.2h-102.4c-11.947,0-21.333-9.387-21.333-21.333s9.387-21.333,21.333-21.333h102.4 c11.947,0,21.333,9.387,21.333,21.333S352.261,50.2,340.314,50.2"></path> <path style="fill:#f6f5f4;" d="M382.981,50.2h-102.4c-11.947,0-21.333-9.387-21.333-21.333s9.387-21.333,21.333-21.333h102.4 c11.947,0,21.333,9.387,21.333,21.333S394.927,50.2,382.981,50.2"></path> <g> <path style="fill:#00b3ff;" d="M408.581,58.733h-102.4c-11.947,0-21.333-9.387-21.333-21.333s9.387-21.333,21.333-21.333h102.4 c11.947,0,21.333,9.387,21.333,21.333S420.527,58.733,408.581,58.733"></path> <path style="fill:#00b3ff;" d="M357.381,50.2h-93.867c-11.947,0-21.333-9.387-21.333-21.333s9.387-21.333,21.333-21.333h93.867 c11.947,0,21.333,9.387,21.333,21.333S369.327,50.2,357.381,50.2"></path> </g> <path d="M382.981,58.733H237.914c-16.213,0-29.867-13.653-29.867-29.867S221.701-1,237.914-1h145.067 c17.067,0,29.867,13.653,29.867,29.867S400.047,58.733,382.981,58.733z M237.914,16.067c-6.827,0-12.8,5.973-12.8,12.8 s5.973,12.8,12.8,12.8h145.067c7.68,0,12.8-5.973,12.8-12.8s-5.12-12.8-12.8-12.8H237.914z"></path> <path d="M246.447,144.067h-128c-16.213,0-29.867-13.653-29.867-29.867s13.653-29.867,29.867-29.867h128 c16.213,0,29.867,13.653,29.867,29.867S262.661,144.067,246.447,144.067z M118.447,101.4c-6.827,0-12.8,5.973-12.8,12.8 s5.973,12.8,12.8,12.8h128c6.827,0,12.8-5.973,12.8-12.8s-5.973-12.8-12.8-12.8H118.447z"></path> <path d="M182.447,511c-98.987,0-179.2-80.213-179.2-179.2c0-72.533,44.373-138.24,110.933-165.547v-30.72 c0-5.12,3.413-8.533,8.533-8.533h119.467c5.12,0,8.533,3.413,8.533,8.533v30.72c66.56,27.307,110.933,93.013,110.933,165.547 C361.647,430.787,281.434,511,182.447,511z M131.247,144.067v27.307c0,3.413-2.56,6.827-5.973,7.68 C62.981,202.947,20.314,264.387,20.314,331.8c0,89.6,72.533,162.133,162.133,162.133S344.581,421.4,344.581,331.8 c0-67.413-42.667-128.853-104.96-151.893c-3.413-1.707-5.973-4.267-5.973-8.533v-27.307H131.247z"></path> <path d="M80.047,348.867H42.501c-5.12,0-8.533-3.413-8.533-8.533c0-5.12,3.413-8.533,8.533-8.533h37.547 c5.12,0,8.533,3.413,8.533,8.533C88.581,345.453,85.167,348.867,80.047,348.867z"></path> <path d="M62.981,383H45.914c-5.12,0-8.533-3.413-8.533-8.533c0-5.12,3.413-8.533,8.533-8.533h17.067 c5.12,0,8.533,3.413,8.533,8.533C71.514,379.587,68.101,383,62.981,383z"></path> <path d="M148.314,212.333h-34.133c-5.12,0-8.533-3.413-8.533-8.533c0-5.12,3.413-8.533,8.533-8.533h34.133 c5.12,0,8.533,3.413,8.533,8.533C156.847,208.92,153.434,212.333,148.314,212.333z"></path> <path d="M97.114,246.467H80.047c-5.12,0-8.533-3.413-8.533-8.533c0-5.12,3.413-8.533,8.533-8.533h17.067 c5.12,0,8.533,3.413,8.533,8.533C105.647,243.053,102.234,246.467,97.114,246.467z"></path> <path d="M88.581,280.6H54.447c-5.12,0-8.533-3.413-8.533-8.533s3.413-8.533,8.533-8.533h34.133c5.12,0,8.533,3.413,8.533,8.533 S93.701,280.6,88.581,280.6z"></path> <path d="M62.981,314.733h-12.8c-5.12,0-8.533-3.413-8.533-8.533s3.413-8.533,8.533-8.533h12.8c5.12,0,8.533,3.413,8.533,8.533 S68.101,314.733,62.981,314.733z"></path> <path d="M463.194,451.267h-151.04c-3.413,0-5.973-1.707-7.68-5.12c-1.707-3.413-0.853-6.827,0.853-9.387 c25.6-29.013,39.253-66.56,39.253-104.96c0-67.413-41.813-128-104.96-151.893c-3.413-0.853-5.12-4.267-5.12-7.68v-36.693 c0-5.12,3.413-8.533,8.533-8.533h4.267c6.827,0,12.8-5.973,12.8-12.8s-6.827-12.8-13.653-12.8h-4.267 c-5.12,0-8.533-3.413-8.533-8.533V50.2c0-5.12,3.413-8.533,8.533-8.533h136.533c5.12,0,8.533,3.413,8.533,8.533v127.147 l107.52,221.013l0,0c5.12,11.093,4.267,24.747-3.413,35.84C485.381,445.293,474.287,451.267,463.194,451.267z M329.221,434.2 h133.12c5.973,0,11.947-3.413,15.36-8.533c4.267-5.973,4.267-13.653,1.707-19.627L371.034,183.32 c-0.853-0.853-0.853-2.56-0.853-3.413V58.733H250.714v25.6c14.507,2.56,25.6,14.507,25.6,29.867s-11.093,27.307-25.6,29.867v22.187 c66.56,27.307,110.933,93.013,110.933,165.547C361.647,368.493,350.554,404.333,329.221,434.2z"></path> </g> </g></svg>